<?xml version="1.0" encoding="iso-8859-1"?>
<!-- Generator: Adobe Illustrator 19.0.0, SVG Export Plug-In . SVG Version: 6.00 Build 0)  -->
<svg version="1.1" id="Layer_1" xmlns="http://www.w3.org/2000/svg" xmlns:xlink="http://www.w3.org/1999/xlink" x="0px" y="0px"
	 viewBox="0 0 512 512" style="enable-background:new 0 0 512 512;" xml:space="preserve">
<rect x="38.602" y="345.578" style="fill:#FEC95B;" width="434.802" height="88.665"/>
<rect x="38.602" y="345.578" style="fill:#E2AD50;" width="434.802" height="19.506"/>
<rect x="8.316" y="312.98" style="fill:#FEC95B;" width="495.363" height="32.597"/>
<path style="fill:#F7CBA4;" d="M64.29,312.983C98.7,241.774,171.614,192.654,255.996,192.654s157.308,49.121,191.719,120.329"/>
<path style="fill:#E0B394;" d="M255.996,192.654c-0.001,0-0.001,0-0.002,0c-84.384,0-157.296,49.121-191.707,120.329h90.658
	C173.084,241.775,211.517,192.655,255.996,192.654z"/>
<path style="fill:#F7C797;" d="M255.996,192.654c-3.048,0-6.078,0.072-9.094,0.198c80.504,3.386,149.456,51.493,182.624,120.13
	h18.188C413.304,241.774,340.38,192.654,255.996,192.654z"/>
<path style="fill:#FD5D65;" d="M373.665,207.716c0,2.82-0.387,5.684-1.205,8.526l-12.277,42.459
	c-7.65-12.061-21.121-20.064-36.468-20.064c-8.73,0-16.87,2.592-23.657,7.071l13.425-46.506
	c4.695-16.279,21.713-25.669,38.003-20.962C364.923,182.116,373.665,194.394,373.665,207.716z"/>
<polygon style="fill:#72CDED;" points="142.605,225.257 57.308,225.257 64.899,312.979 135.012,312.979 "/>
<polygon style="fill:#5FBAD3;" points="57.308,225.257 64.899,312.979 92.183,312.979 84.59,225.257 "/>
<rect x="42.122" y="198.545" style="fill:#72CDED;" width="115.666" height="26.71"/>
<rect x="42.122" y="198.545" style="fill:#5FBAD3;" width="33.82" height="26.71"/>
<path d="M503.684,304.664h-50.856c-17.086-33.317-42.292-61.707-73.382-82.642l1.006-3.478c1.015-3.525,1.529-7.167,1.529-10.826
	c0-14.437-8.103-27.566-20.453-34.284l26.966-93.366c1.274-4.412-1.27-9.022-5.682-10.297c-4.416-1.275-9.023,1.27-10.297,5.682
	l-26.962,93.35c-7.394-0.507-14.79,1.104-21.434,4.77c-7.092,3.912-12.657,9.793-16.144,16.913
	c-16.955-4.079-34.404-6.146-51.98-6.146c-27.003,0-53.379,4.813-78.396,14.305c-4.294,1.629-6.454,6.431-4.825,10.725
	c1.261,3.323,4.422,5.368,7.777,5.368c0.98,0,1.977-0.174,2.948-0.543c23.126-8.775,47.516-13.223,72.495-13.223
	c15.809,0,31.499,1.824,46.766,5.39l-9.887,34.245c-4.605,3.442-8.582,7.596-11.833,12.4c-2.575,3.803-1.579,8.973,2.224,11.548
	c3.801,2.575,8.972,1.579,11.548-2.224c2.617-3.865,5.915-7.118,9.824-9.681c5.646-3.727,12.243-5.696,19.076-5.696
	c12.002,0,23.01,6.057,29.447,16.203c3.534,5.572,5.402,12.019,5.402,18.645c0,4.593,3.723,8.316,8.316,8.316
	c4.592,0,8.316-3.723,8.316-8.316c0-8.484-2.08-16.772-6.037-24.197l5.413-18.719c24.391,17.367,44.641,39.787,59.383,65.779H144.08
	l6.153-71.09h7.558c4.593,0,8.316-3.723,8.316-8.316v-26.715c0-4.592-3.723-8.316-8.316-8.316h-4.614v-5.749
	c0-29.346-23.875-53.221-53.221-53.221s-53.221,23.875-53.221,53.221v5.749h-4.614c-4.593,0-8.316,3.723-8.316,8.316v26.715
	c0,4.592,3.723,8.316,8.316,8.316h7.558l6.153,71.09H8.316c-4.593,0-8.316,3.723-8.316,8.316v32.597
	c0,4.592,3.723,8.316,8.316,8.316h21.969v80.349c0,4.592,3.723,8.316,8.316,8.316h434.798c4.592,0,8.316-3.723,8.316-8.316v-60.946
	c0-4.592-3.723-8.316-8.316-8.316s-8.316,3.723-8.316,8.316v52.63H46.916v-72.033h41.231c4.593,0,8.316-3.723,8.316-8.316
	s-3.723-8.316-8.316-8.316H16.631v-15.965h48.268h70.113h360.355v15.965H115.866c-4.593,0-8.316,3.723-8.316,8.316
	s3.723,8.316,8.316,8.316h387.818c4.592,0,8.316-3.723,8.316-8.316v-32.597C512,308.386,508.277,304.664,503.684,304.664z
	 M323.714,230.321c-3.694,0-7.342,0.395-10.895,1.16l8.654-29.975c1.654-5.738,5.447-10.487,10.68-13.374
	c5.234-2.887,11.282-3.564,17.027-1.904c9.52,2.746,16.168,11.582,16.168,21.487c0,2.102-0.296,4.197-0.877,6.216l-8.108,28.038
	C347.301,234.518,335.854,230.321,323.714,230.321z M50.438,216.941v-10.083h4.614h89.81h4.614v10.083h-6.87H57.308H50.438z
	 M63.367,184.478c0-20.175,16.414-36.589,36.589-36.589s36.589,16.414,36.589,36.589v5.749H63.367V184.478z M72.527,304.664
	l-6.153-71.09h67.163l-6.153,71.09H72.527z"/>
<path d="M195.876,265.71c-6.105-4.117-14.327,1.603-12.719,8.736c0.725,3.213,3.332,5.73,6.567,6.351
	c3.513,0.674,7.195-1.102,8.871-4.255C200.57,272.828,199.4,268.034,195.876,265.71z"/>
<path d="M161.227,262.65c0,7.572,9.775,11.152,14.66,5.368c2.269-2.687,2.591-6.603,0.797-9.625c-1.76-2.964-5.295-4.549-8.679-3.91
	C164.123,255.217,161.227,258.695,161.227,262.65z"/>
<path d="M194.666,237.991c-3.121-2.108-7.411-1.762-10.196,0.753c-2.664,2.406-3.454,6.385-1.961,9.638
	c1.454,3.17,4.884,5.148,8.36,4.801c3.333-0.333,6.194-2.704,7.152-5.905C199.042,243.863,197.691,239.936,194.666,237.991z"/>
<path d="M310.743,287.22c4.139,6.056,13.822,4.09,15.105-3.194c1.322-7.504-7.766-12.655-13.557-7.77
	C309.098,278.95,308.451,283.741,310.743,287.22z"/>
<path d="M283.023,294.982c2.032,2.974,5.821,4.393,9.291,3.353c3.273-0.98,5.657-3.948,5.917-7.356
	c0.575-7.509-8.831-11.825-14.166-6.498C281.288,287.256,280.869,291.712,283.023,294.982z"/>
<g>
</g>
<g>
</g>
<g>
</g>
<g>
</g>
<g>
</g>
<g>
</g>
<g>
</g>
<g>
</g>
<g>
</g>
<g>
</g>
<g>
</g>
<g>
</g>
<g>
</g>
<g>
</g>
<g>
</g>
</svg>
